<svg xmlns="http://www.w3.org/2000/svg" width="2090" height="1010" viewBox="0 0 2090 1010" font-family="Helvetica, Arial, sans-serif">
  <defs>
    <marker id="arrow" markerWidth="13" markerHeight="12" refX="11" refY="6" orient="auto" markerUnits="userSpaceOnUse">
      <path d="M0,0 L12,6 L0,12 Z" fill="#5D6D7E"/>
    </marker>
    <marker id="arrowRed" markerWidth="15" markerHeight="14" refX="13" refY="7" orient="auto" markerUnits="userSpaceOnUse">
      <path d="M0,0 L14,7 L0,14 Z" fill="#C0392B"/>
    </marker>
    <marker id="arrowLoop" markerWidth="15" markerHeight="14" refX="13" refY="7" orient="auto" markerUnits="userSpaceOnUse">
      <path d="M0,0 L14,7 L0,14 Z" fill="#007AFF"/>
    </marker>
  </defs>
<rect x="0" y="0" width="2090" height="1010" fill="#FFFFFF"/>
<text x="1045.0" y="38" font-size="24" font-weight="bold" fill="#1B2631" text-anchor="middle">Acme Corp Expense Reimbursement: Current State</text>
  <rect x="20" y="130" width="2050" height="170" fill="#FBFCFC" stroke="#B3B6B7" stroke-width="1"/>
  <rect x="20" y="300" width="2050" height="170" fill="#F4F6F7" stroke="#B3B6B7" stroke-width="1"/>
  <rect x="20" y="470" width="2050" height="170" fill="#FBFCFC" stroke="#B3B6B7" stroke-width="1"/>
  <rect x="20" y="640" width="2050" height="170" fill="#F4F6F7" stroke="#B3B6B7" stroke-width="1"/>
  <rect x="20" y="130" width="125" height="170" fill="#D6DBDF" stroke="#B3B6B7" stroke-width="1"/>
  <text x="82.5" y="220.0" font-size="16" font-weight="bold" fill="#1B2631" text-anchor="middle">Employee</text>
  <rect x="20" y="300" width="125" height="170" fill="#D6DBDF" stroke="#B3B6B7" stroke-width="1"/>
  <text x="82.5" y="390.0" font-size="16" font-weight="bold" fill="#1B2631" text-anchor="middle">Manager</text>
  <rect x="20" y="470" width="125" height="170" fill="#D6DBDF" stroke="#B3B6B7" stroke-width="1"/>
  <text x="82.5" y="560.0" font-size="16" font-weight="bold" fill="#1B2631" text-anchor="middle">Finance</text>
  <rect x="20" y="640" width="125" height="170" fill="#D6DBDF" stroke="#B3B6B7" stroke-width="1"/>
  <text x="82.5" y="730.0" font-size="16" font-weight="bold" fill="#1B2631" text-anchor="middle">System</text>
  <rect x="160" y="180.0" width="135" height="70" rx="6" fill="#FFFFFF" stroke="#7F8C8D" stroke-width="1.5"/>
  <circle cx="176" cy="195.0" r="10" fill="#5D6D7E"/><text x="176" y="199.0" font-size="11" font-weight="bold" fill="#FFF" text-anchor="middle">1</text>
  <text x="227.5" y="205.0" font-size="11" fill="#000000" text-anchor="middle">Employee</text>
  <text x="227.5" y="219.0" font-size="11" fill="#000000" text-anchor="middle">incurs an</text>
  <text x="227.5" y="233.0" font-size="11" fill="#000000" text-anchor="middle">expense</text>
  <rect x="320" y="180.0" width="135" height="70" rx="6" fill="#FDEDEC" stroke="#FF0436" stroke-width="2.5"/>
  <circle cx="336" cy="195.0" r="10" fill="#5D6D7E"/><text x="336" y="199.0" font-size="11" font-weight="bold" fill="#FFF" text-anchor="middle">2</text>
  <circle cx="440" cy="193.0" r="9" fill="#FF0436"/><text x="440" y="197.0" font-size="12" font-weight="bold" fill="#FFF" text-anchor="middle">!</text>
  <text x="387.5" y="205.0" font-size="11" fill="#000000" text-anchor="middle">Employee</text>
  <text x="387.5" y="219.0" font-size="11" fill="#000000" text-anchor="middle">collects the</text>
  <text x="387.5" y="233.0" font-size="11" fill="#000000" text-anchor="middle">receipt</text>
  <text x="387.5" y="268.0" font-size="10" fill="#FF0436" text-anchor="middle">Receipts can be lost or</text>
  <text x="387.5" y="281.0" font-size="10" fill="#FF0436" text-anchor="middle">forgotten, resulting in out of</text>
  <text x="387.5" y="294.0" font-size="10" fill="#FF0436" text-anchor="middle">pocket losses</text>
  <rect x="480" y="180.0" width="135" height="70" rx="6" fill="#FDEDEC" stroke="#FF0436" stroke-width="2.5"/>
  <circle cx="496" cy="195.0" r="10" fill="#5D6D7E"/><text x="496" y="199.0" font-size="11" font-weight="bold" fill="#FFF" text-anchor="middle">3</text>
  <circle cx="600" cy="193.0" r="9" fill="#FF0436"/><text x="600" y="197.0" font-size="12" font-weight="bold" fill="#FFF" text-anchor="middle">!</text>
  <text x="547.5" y="205.0" font-size="11" fill="#000000" text-anchor="middle">Employee logs</text>
  <text x="547.5" y="219.0" font-size="11" fill="#000000" text-anchor="middle">into the</text>
  <text x="547.5" y="233.0" font-size="11" fill="#000000" text-anchor="middle">expense portal</text>
  <text x="547.5" y="268.0" font-size="10" fill="#FF0436" text-anchor="middle">No mobile filing option</text>
  <text x="547.5" y="281.0" font-size="10" fill="#FF0436" text-anchor="middle">results in backlog of unfilled</text>
  <text x="547.5" y="294.0" font-size="10" fill="#FF0436" text-anchor="middle">expenses</text>
  <rect x="640" y="180.0" width="135" height="70" rx="6" fill="#FFFFFF" stroke="#7F8C8D" stroke-width="1.5"/>
  <circle cx="656" cy="195.0" r="10" fill="#5D6D7E"/><text x="656" y="199.0" font-size="11" font-weight="bold" fill="#FFF" text-anchor="middle">4</text>
  <text x="707.5" y="205.0" font-size="11" fill="#000000" text-anchor="middle">Employee</text>
  <text x="707.5" y="219.0" font-size="11" fill="#000000" text-anchor="middle">uploads the</text>
  <text x="707.5" y="233.0" font-size="11" fill="#000000" text-anchor="middle">receipt</text>
  <rect x="800" y="180.0" width="135" height="70" rx="6" fill="#FFFFFF" stroke="#7F8C8D" stroke-width="1.5"/>
  <circle cx="816" cy="195.0" r="10" fill="#5D6D7E"/><text x="816" y="199.0" font-size="11" font-weight="bold" fill="#FFF" text-anchor="middle">5</text>
  <text x="867.5" y="205.0" font-size="11" fill="#000000" text-anchor="middle">Employee</text>
  <text x="867.5" y="219.0" font-size="11" fill="#000000" text-anchor="middle">submits the</text>
  <text x="867.5" y="233.0" font-size="11" fill="#000000" text-anchor="middle">report</text>
  <rect x="960" y="350.0" width="135" height="70" rx="6" fill="#FDEDEC" stroke="#FF0436" stroke-width="2.5"/>
  <circle cx="976" cy="365.0" r="10" fill="#5D6D7E"/><text x="976" y="369.0" font-size="11" font-weight="bold" fill="#FFF" text-anchor="middle">6</text>
  <circle cx="1080" cy="363.0" r="9" fill="#FF0436"/><text x="1080" y="367.0" font-size="12" font-weight="bold" fill="#FFF" text-anchor="middle">!</text>
  <text x="1027.5" y="375.0" font-size="11" fill="#000000" text-anchor="middle">Manager</text>
  <text x="1027.5" y="389.0" font-size="11" fill="#000000" text-anchor="middle">reviews the</text>
  <text x="1027.5" y="403.0" font-size="11" fill="#000000" text-anchor="middle">report</text>
  <text x="1027.5" y="438.0" font-size="10" fill="#FF0436" text-anchor="middle">Email context switch, and</text>
  <text x="1027.5" y="451.0" font-size="10" fill="#FF0436" text-anchor="middle">approvals can pile up</text>
  <rect x="1120" y="690.0" width="135" height="70" rx="6" fill="#FDEDEC" stroke="#FF0436" stroke-width="2.5"/>
  <circle cx="1136" cy="705.0" r="10" fill="#5D6D7E"/><text x="1136" y="709.0" font-size="11" font-weight="bold" fill="#FFF" text-anchor="middle">7</text>
  <circle cx="1240" cy="703.0" r="9" fill="#FF0436"/><text x="1240" y="707.0" font-size="12" font-weight="bold" fill="#FFF" text-anchor="middle">!</text>
  <text x="1187.5" y="708.0" font-size="11" fill="#000000" text-anchor="middle">Approved</text>
  <text x="1187.5" y="722.0" font-size="11" fill="#000000" text-anchor="middle">reports are</text>
  <text x="1187.5" y="736.0" font-size="11" fill="#000000" text-anchor="middle">forwarded to</text>
  <text x="1187.5" y="750.0" font-size="11" fill="#000000" text-anchor="middle">Finance</text>
  <text x="1187.5" y="778.0" font-size="10" fill="#FF0436" text-anchor="middle">Weekly batch may cause delays</text>
  <text x="1187.5" y="791.0" font-size="10" fill="#FF0436" text-anchor="middle">of up to 7 days</text>
  <rect x="1280" y="520.0" width="135" height="70" rx="6" fill="#FDEDEC" stroke="#FF0436" stroke-width="2.5"/>
  <circle cx="1296" cy="535.0" r="10" fill="#5D6D7E"/><text x="1296" y="539.0" font-size="11" font-weight="bold" fill="#FFF" text-anchor="middle">8</text>
  <circle cx="1400" cy="533.0" r="9" fill="#FF0436"/><text x="1400" y="537.0" font-size="12" font-weight="bold" fill="#FFF" text-anchor="middle">!</text>
  <text x="1347.5" y="538.0" font-size="11" fill="#000000" text-anchor="middle">Finance</text>
  <text x="1347.5" y="552.0" font-size="11" fill="#000000" text-anchor="middle">reviews for</text>
  <text x="1347.5" y="566.0" font-size="11" fill="#000000" text-anchor="middle">policy</text>
  <text x="1347.5" y="580.0" font-size="11" fill="#000000" text-anchor="middle">compliance</text>
  <text x="1347.5" y="608.0" font-size="10" fill="#FF0436" text-anchor="middle">Policy enforcement comes too</text>
  <text x="1347.5" y="621.0" font-size="10" fill="#FF0436" text-anchor="middle">late after money is already</text>
  <text x="1347.5" y="634.0" font-size="10" fill="#FF0436" text-anchor="middle">spent</text>
  <rect x="1440" y="520.0" width="135" height="70" rx="6" fill="#FDEDEC" stroke="#FF0436" stroke-width="2.5"/>
  <circle cx="1456" cy="535.0" r="10" fill="#5D6D7E"/><text x="1456" y="539.0" font-size="11" font-weight="bold" fill="#FFF" text-anchor="middle">9</text>
  <circle cx="1560" cy="533.0" r="9" fill="#FF0436"/><text x="1560" y="537.0" font-size="12" font-weight="bold" fill="#FFF" text-anchor="middle">!</text>
  <text x="1507.5" y="538.0" font-size="11" fill="#000000" text-anchor="middle">Finance</text>
  <text x="1507.5" y="552.0" font-size="11" fill="#000000" text-anchor="middle">approves or</text>
  <text x="1507.5" y="566.0" font-size="11" fill="#000000" text-anchor="middle">flags the</text>
  <text x="1507.5" y="580.0" font-size="11" fill="#000000" text-anchor="middle">report</text>
  <text x="1507.5" y="608.0" font-size="10" fill="#FF0436" text-anchor="middle">Generic emails for flagged</text>
  <text x="1507.5" y="621.0" font-size="10" fill="#FF0436" text-anchor="middle">reports are opaque and slow</text>
  <text x="1507.5" y="634.0" font-size="10" fill="#FF0436" text-anchor="middle">resubmission</text>
  <rect x="1600" y="690.0" width="135" height="70" rx="6" fill="#FDEDEC" stroke="#FF0436" stroke-width="2.5"/>
  <circle cx="1616" cy="705.0" r="10" fill="#5D6D7E"/><text x="1616" y="709.0" font-size="11" font-weight="bold" fill="#FFF" text-anchor="middle">10</text>
  <circle cx="1720" cy="703.0" r="9" fill="#FF0436"/><text x="1720" y="707.0" font-size="12" font-weight="bold" fill="#FFF" text-anchor="middle">!</text>
  <text x="1667.5" y="701.0" font-size="11" fill="#000000" text-anchor="middle">Approved</text>
  <text x="1667.5" y="715.0" font-size="11" fill="#000000" text-anchor="middle">reports are</text>
  <text x="1667.5" y="729.0" font-size="11" fill="#000000" text-anchor="middle">entered into</text>
  <text x="1667.5" y="743.0" font-size="11" fill="#000000" text-anchor="middle">the accounting</text>
  <text x="1667.5" y="757.0" font-size="11" fill="#000000" text-anchor="middle">system</text>
  <text x="1667.5" y="778.0" font-size="10" fill="#FF0436" text-anchor="middle">Manual ERP entry is error</text>
  <text x="1667.5" y="791.0" font-size="10" fill="#FF0436" text-anchor="middle">prone and time consuming (~6</text>
  <text x="1667.5" y="804.0" font-size="10" fill="#FF0436" text-anchor="middle">hours per week and assumes 10%...</text>
  <rect x="1760" y="690.0" width="135" height="70" rx="6" fill="#FDEDEC" stroke="#FF0436" stroke-width="2.5"/>
  <circle cx="1776" cy="705.0" r="10" fill="#5D6D7E"/><text x="1776" y="709.0" font-size="11" font-weight="bold" fill="#FFF" text-anchor="middle">11</text>
  <circle cx="1880" cy="703.0" r="9" fill="#FF0436"/><text x="1880" y="707.0" font-size="12" font-weight="bold" fill="#FFF" text-anchor="middle">!</text>
  <text x="1827.5" y="722.0" font-size="11" fill="#000000" text-anchor="middle">Reimbursement</text>
  <text x="1827.5" y="736.0" font-size="11" fill="#000000" text-anchor="middle">is issued</text>
  <text x="1827.5" y="778.0" font-size="10" fill="#FF0436" text-anchor="middle">Tight payroll coupling causes</text>
  <text x="1827.5" y="791.0" font-size="10" fill="#FF0436" text-anchor="middle">delays of 3-6 weeks for</text>
  <text x="1827.5" y="804.0" font-size="10" fill="#FF0436" text-anchor="middle">reimbursement</text>
  <rect x="1920" y="180.0" width="135" height="70" rx="6" fill="#FDEDEC" stroke="#FF0436" stroke-width="2.5"/>
  <circle cx="1936" cy="195.0" r="10" fill="#5D6D7E"/><text x="1936" y="199.0" font-size="11" font-weight="bold" fill="#FFF" text-anchor="middle">12</text>
  <circle cx="2040" cy="193.0" r="9" fill="#FF0436"/><text x="2040" y="197.0" font-size="12" font-weight="bold" fill="#FFF" text-anchor="middle">!</text>
  <text x="1987.5" y="198.0" font-size="11" fill="#000000" text-anchor="middle">Employee</text>
  <text x="1987.5" y="212.0" font-size="11" fill="#000000" text-anchor="middle">receives no</text>
  <text x="1987.5" y="226.0" font-size="11" fill="#000000" text-anchor="middle">further</text>
  <text x="1987.5" y="240.0" font-size="11" fill="#000000" text-anchor="middle">notification</text>
  <text x="1987.5" y="268.0" font-size="10" fill="#FF0436" text-anchor="middle">Lack of notification means</text>
  <text x="1987.5" y="281.0" font-size="10" fill="#FF0436" text-anchor="middle">employees must manually check</text>
  <text x="1987.5" y="294.0" font-size="10" fill="#FF0436" text-anchor="middle">the portal to see status</text>
  <line x1="295" y1="215.0" x2="320" y2="215.0" stroke="#5D6D7E" stroke-width="2" marker-end="url(#arrow)"/>
  <line x1="455" y1="215.0" x2="480" y2="215.0" stroke="#5D6D7E" stroke-width="2" marker-end="url(#arrow)"/>
  <line x1="615" y1="215.0" x2="640" y2="215.0" stroke="#5D6D7E" stroke-width="2" marker-end="url(#arrow)"/>
  <line x1="775" y1="215.0" x2="800" y2="215.0" stroke="#5D6D7E" stroke-width="2" marker-end="url(#arrow)"/>
  <path d="M 935,215.0 L 940,215.0 L 940,385.0 L 960,385.0" fill="none" stroke="#5D6D7E" stroke-width="2" marker-end="url(#arrow)"/>
  <path d="M 1095,385.0 L 1100,385.0 L 1100,725.0 L 1120,725.0" fill="none" stroke="#5D6D7E" stroke-width="2" marker-end="url(#arrow)"/>
  <text x="1108" y="555.0" font-size="10" font-style="italic" fill="#5D6D7E" text-anchor="start">Approved</text>
  <path d="M 1255,725.0 L 1260,725.0 L 1260,555.0 L 1280,555.0" fill="none" stroke="#5D6D7E" stroke-width="2" marker-end="url(#arrow)"/>
  <line x1="1415" y1="555.0" x2="1440" y2="555.0" stroke="#5D6D7E" stroke-width="2" marker-end="url(#arrow)"/>
  <path d="M 1575,555.0 L 1580,555.0 L 1580,725.0 L 1600,725.0" fill="none" stroke="#5D6D7E" stroke-width="2" marker-end="url(#arrow)"/>
  <text x="1588" y="640.0" font-size="10" font-style="italic" fill="#5D6D7E" text-anchor="start">Approved</text>
  <line x1="1735" y1="725.0" x2="1760" y2="725.0" stroke="#5D6D7E" stroke-width="2" marker-end="url(#arrow)"/>
  <path d="M 1895,725.0 L 1900,725.0 L 1900,215.0 L 1920,215.0" fill="none" stroke="#5D6D7E" stroke-width="2" marker-end="url(#arrow)"/>
  <path d="M 1027.5,350.0 L 1027.5,74.5 L 858.5,74.5 L 858.5,180.0" fill="none" stroke="#007AFF" stroke-width="2.5" stroke-dasharray="2,6" stroke-linecap="round" marker-end="url(#arrowLoop)"/>
  <text x="943.0" y="68.5" font-size="11" font-weight="bold" fill="#007AFF" text-anchor="middle">Rejected: Manager rejects</text>
  <path d="M 1507.5,520.0 L 1507.5,103.5 L 876.5,103.5 L 876.5,180.0" fill="none" stroke="#007AFF" stroke-width="2.5" stroke-dasharray="2,6" stroke-linecap="round" marker-end="url(#arrowLoop)"/>
  <text x="1192.0" y="97.5" font-size="11" font-weight="bold" fill="#007AFF" text-anchor="middle">Flagged: Finance flags</text>
  <text x="150" y="870" font-size="13" font-weight="bold" fill="#1B2631">Legend:</text>
  <rect x="230" y="857" width="26" height="17" rx="3" fill="#FFFFFF" stroke="#7F8C8D" stroke-width="1.5"/>
  <text x="265" y="870" font-size="12" fill="#1B2631">Standard step</text>
  <rect x="385" y="857" width="26" height="17" rx="3" fill="#FDEDEC" stroke="#FF0436" stroke-width="2"/>
  <circle cx="411" cy="860" r="6" fill="#FF0436"/><text x="411" y="863.5" font-size="9" font-weight="bold" fill="#FFF" text-anchor="middle">!</text>
  <text x="423" y="870" font-size="12" fill="#1B2631">Documented pain point</text>
  <line x1="600" y1="865" x2="650" y2="865" stroke="#5D6D7E" stroke-width="2" marker-end="url(#arrow)"/>
  <text x="660" y="870" font-size="12" fill="#1B2631">Process flow</text>
  <line x1="760" y1="865" x2="810" y2="865" stroke="#007AFF" stroke-width="2.5" stroke-dasharray="2,6" stroke-linecap="round" marker-end="url(#arrowLoop)"/>
  <text x="820" y="870" font-size="12" fill="#1B2631">Rejection / rework loop</text>
</svg>